#define CSmall_width 23
#define CSmall_height 14
static unsigned char CSmall_bits[] = {
   0x00, 0x00, 0x00, 0x00, 0x3e, 0x00, 0x00, 0xff, 0x07, 0x00, 0xff, 0x07,
   0xf0, 0xff, 0x07, 0xfc, 0xc3, 0x1f, 0xfc, 0xc3, 0x1f, 0xfc, 0xc3, 0x1f,
   0xfc, 0xc3, 0x1f, 0xfc, 0xc1, 0x1f, 0x00, 0x00, 0x00, 0x00, 0x00, 0x00,
   0x00, 0x00, 0x00, 0x00, 0x00, 0x00 };
